<svg width="512" height="512" viewBox="0 0 512 512" fill="none" xmlns="http://www.w3.org/2000/svg">
<mask id="mask0_1033_489" style="mask-type:luminance" maskUnits="userSpaceOnUse" x="0" y="0" width="512" height="512">
<path d="M512 0H0V512H512V0Z" fill="white"/>
</mask>
<g mask="url(#mask0_1033_489)">
<path d="M444.475 0L449.94 40.7994V40.9022L465.151 154.493L313.687 327.394L318.329 315.81C318.402 315.706 318.446 315.583 318.454 315.456L444.39 0.182953C444.406 0.117075 444.435 0.0549202 444.475 0Z" fill="url(#paint0_linear_1033_489)"/>
<path d="M486.9 316.582L511.997 503.548L313.687 327.395L319.612 327.023L479.663 316.97C479.766 316.97 479.913 317.005 480.01 316.999H480.106L480.674 316.965L486.9 316.582Z" fill="url(#paint1_linear_1033_489)"/>
<path d="M444.475 0C444.433 0.0600485 444.404 0.128172 444.39 0.200046L318.455 315.473C318.446 315.6 318.402 315.723 318.33 315.827L313.687 327.412L225.937 249.476L444.475 0Z" fill="url(#paint2_linear_1033_489)"/>
<path d="M394.792 234.811L486.872 316.598L480.629 316.993L480.062 317.027H479.965C479.869 317.027 479.721 316.993 479.619 316.998L319.568 327.051L313.642 327.423L394.792 234.811Z" fill="url(#paint3_linear_1033_489)"/>
<g style="mix-blend-mode:screen" opacity="0.6">
<path d="M426.768 20.2201C426.768 20.2201 424.253 23.7178 419.701 29.7471C415.047 35.685 408.617 44.3946 400.404 54.4816C392.356 64.6142 382.81 76.3642 372.401 88.7715C361.992 101.179 350.771 114.197 339.443 127.239C328.007 140.183 316.616 153.082 305.611 165.021C294.697 176.954 284.361 187.915 275.383 197.225C266.41 206.626 258.685 214.187 253.412 219.576C248.038 224.874 244.859 227.874 244.859 227.874L426.768 20.2201Z" fill="white"/>
</g>
<g style="mix-blend-mode:screen" opacity="0.6">
<path d="M444.394 0.199524L318.459 315.472C318.817 314.227 320.371 309.415 322.88 301.939C325.99 293.15 330.083 280.52 335.486 265.449C340.889 250.379 347.257 232.937 354.294 214.323C361.332 195.709 369.165 175.872 376.952 156.081C384.943 136.382 392.888 116.728 400.664 98.3144C408.439 79.9007 415.721 62.8814 422.231 48.3426C428.633 33.7008 434.371 21.6993 438.23 13.2068C441.676 5.82306 443.872 1.21679 444.394 0.199524Z" fill="white"/>
</g>
<g style="mix-blend-mode:screen" opacity="0.6">
<path d="M479.66 316.987L319.609 327.039C319.512 327.039 319.359 327.005 319.263 327.011C320.398 326.742 330.046 324.663 344.156 322.691C351.602 321.634 360.41 320.587 369.809 319.599C379.208 318.61 389.26 317.93 399.357 317.193C409.368 316.661 419.425 316.05 428.926 315.918C438.319 315.667 447.19 315.604 454.761 315.764C468.008 315.964 477.458 316.787 479.66 316.987Z" fill="white"/>
</g>
<g style="mix-blend-mode:multiply" opacity="0.2">
<path d="M394.791 234.811L313.687 327.394L440.859 275.668L394.791 234.811Z" fill="black"/>
</g>
<g style="mix-blend-mode:multiply" opacity="0.15">
<path d="M455.519 97.8977C457.358 116.443 459.629 134.908 461.649 153.333C450.065 166.146 438.271 178.868 426.841 191.818L396.618 226.211L313.687 327.395L435.916 277.674L437.715 279.251L480.685 316.97L482.802 318.851C484.998 333.835 487.008 348.831 489.403 363.805L496.543 410.439C498.977 426.001 501.355 441.511 504.029 457.005C506.702 472.498 509.227 488.054 511.974 503.542L486.877 316.576L440.837 275.685L394.791 234.812L465.168 154.493L449.957 40.9021C451.62 59.9331 453.675 78.8668 455.519 97.8977Z" fill="black"/>
</g>
<path d="M0 507.416L40.8642 507.782H40.9607L154.79 508.799L306.26 335.881L295.425 341.968C295.332 342.052 295.219 342.109 295.096 342.133L0.164545 507.296C0.102479 507.325 0.046626 507.366 0 507.416Z" fill="url(#paint4_linear_1033_489)"/>
<path d="M317.236 510.275L504.592 511.989L306.282 335.853L306.656 341.82L316.73 502.982C316.73 503.079 316.799 503.222 316.804 503.319V503.417L316.838 503.988L317.236 510.275Z" fill="url(#paint5_linear_1033_489)"/>
<path d="M0 507.417C0.0543255 507.368 0.118034 507.331 0.187235 507.308L295.119 342.145C295.242 342.12 295.355 342.063 295.448 341.979L306.283 335.893L218.538 257.958L0 507.417Z" fill="url(#paint6_linear_1033_489)"/>
<path d="M225.15 428.482L317.236 510.275L316.845 503.988L316.81 503.417V503.319C316.81 503.222 316.742 503.079 316.737 502.982L306.662 341.82L306.288 335.853L225.15 428.482Z" fill="url(#paint7_linear_1033_489)"/>
<g style="mix-blend-mode:screen" opacity="0.6">
<path d="M17.7085 487.185C17.7085 487.185 20.8414 484.242 26.2219 478.944C31.4945 473.549 39.2757 466.04 48.1921 456.587C57.1707 447.283 67.5513 436.271 78.4655 424.338C89.3796 412.405 100.816 399.552 112.252 386.619C123.603 373.583 134.864 360.593 145.256 348.105C155.648 335.715 165.166 324.017 173.214 313.884C181.358 303.746 187.84 295.087 192.511 289.15C197.051 283.115 199.622 279.566 199.622 279.566L17.7085 487.185Z" fill="white"/>
</g>
<g style="mix-blend-mode:screen" opacity="0.6">
<path d="M0.188477 507.297L295.12 342.134C293.928 342.654 289.382 344.803 282.333 348.243C274.058 352.449 262.122 358.113 247.95 365.388C233.778 372.663 217.382 381.213 199.924 390.568C182.465 399.924 163.889 410.222 145.364 420.475C126.947 430.916 108.575 441.306 91.4064 451.376C74.2378 461.445 58.3859 470.841 44.8667 479.156C31.2453 487.386 20.1268 494.587 12.2435 499.53C5.38736 503.873 1.12495 506.651 0.188477 507.297Z" fill="white"/>
</g>
<g style="mix-blend-mode:screen" opacity="0.6">
<path d="M316.733 502.987L306.659 341.825C306.659 341.728 306.591 341.584 306.585 341.487C306.466 342.67 305.62 352.546 305.45 366.896C305.337 374.463 305.405 383.395 305.603 392.911C305.802 402.426 306.387 412.553 306.926 422.732C307.647 432.801 308.328 442.917 309.361 452.449C310.286 461.873 311.324 470.737 312.431 478.281C314.264 491.454 316.257 500.804 316.733 502.987Z" fill="white"/>
</g>
<g style="mix-blend-mode:multiply" opacity="0.2">
<path d="M225.15 428.481L306.282 335.864L271.19 469.378L225.15 428.481Z" fill="black"/>
</g>
<g style="mix-blend-mode:multiply" opacity="0.15">
<path d="M97.8397 506.239C116.342 505.759 134.822 505.725 153.233 505.445C164.409 492.272 175.476 478.904 186.81 465.863L216.925 431.379L306.281 335.864L272.557 464.188L274.333 465.789L316.843 504.01L318.96 505.891C334.001 506.216 349.041 506.348 364.081 506.874L410.922 508.188C426.558 508.674 442.138 509.114 457.745 509.851C473.353 510.588 488.961 511.171 504.592 512.001L317.235 510.285L271.195 469.395L225.149 428.498L154.811 508.8L40.9817 507.782C59.9325 507.062 78.8549 506.754 97.8397 506.239Z" fill="black"/>
</g>
</g>
<defs>
<linearGradient id="paint0_linear_1033_489" x1="3712.69" y1="-446.894" x2="4043.04" y2="-446.894" gradientUnits="userSpaceOnUse">
<stop stop-color="#FCFC53"/>
<stop offset="1" stop-color="#F8A700"/>
</linearGradient>
<linearGradient id="paint1_linear_1033_489" x1="3833.7" y1="-254.785" x2="3714.91" y2="-254.785" gradientUnits="userSpaceOnUse">
<stop stop-color="#FCFC53"/>
<stop offset="1" stop-color="#F8A700"/>
</linearGradient>
<linearGradient id="paint2_linear_1033_489" x1="4034.4" y1="-446.917" x2="3715.78" y2="-446.917" gradientUnits="userSpaceOnUse">
<stop stop-color="#FCFC53"/>
<stop offset="1" stop-color="#F8A700"/>
</linearGradient>
<linearGradient id="paint3_linear_1033_489" x1="3713.11" y1="-326.043" x2="3835.76" y2="-326.043" gradientUnits="userSpaceOnUse">
<stop stop-color="#FCFC53"/>
<stop offset="1" stop-color="#F8A700"/>
</linearGradient>
<linearGradient id="paint4_linear_1033_489" x1="-8552.93" y1="-444.154" x2="-8222.44" y2="-444.154" gradientUnits="userSpaceOnUse">
<stop stop-color="#00F3FF"/>
<stop offset="0.238" stop-color="#00EFFC"/>
<stop offset="0.44" stop-color="#00E5F4"/>
<stop offset="0.629" stop-color="#00D3E7"/>
<stop offset="0.81" stop-color="#00BAD4"/>
<stop offset="0.983" stop-color="#009BBC"/>
<stop offset="1" stop-color="#0098BA"/>
</linearGradient>
<linearGradient id="paint5_linear_1033_489" x1="-8432.84" y1="-252.265" x2="-8551.63" y2="-252.265" gradientUnits="userSpaceOnUse">
<stop stop-color="#00F3FF"/>
<stop offset="0.238" stop-color="#00EFFC"/>
<stop offset="0.44" stop-color="#00E5F4"/>
<stop offset="0.629" stop-color="#00D3E7"/>
<stop offset="0.81" stop-color="#00BAD4"/>
<stop offset="0.983" stop-color="#009BBC"/>
<stop offset="1" stop-color="#0098BA"/>
</linearGradient>
<linearGradient id="paint6_linear_1033_489" x1="-8231.98" y1="-444.271" x2="-8550.78" y2="-444.271" gradientUnits="userSpaceOnUse">
<stop stop-color="#00F3FF"/>
<stop offset="0.238" stop-color="#00EFFC"/>
<stop offset="0.44" stop-color="#00E5F4"/>
<stop offset="0.629" stop-color="#00D3E7"/>
<stop offset="0.81" stop-color="#00BAD4"/>
<stop offset="0.983" stop-color="#009BBC"/>
<stop offset="1" stop-color="#0098BA"/>
</linearGradient>
<linearGradient id="paint7_linear_1033_489" x1="-8553.62" y1="-323.635" x2="-8430.97" y2="-323.635" gradientUnits="userSpaceOnUse">
<stop stop-color="#00F3FF"/>
<stop offset="0.238" stop-color="#00EFFC"/>
<stop offset="0.44" stop-color="#00E5F4"/>
<stop offset="0.629" stop-color="#00D3E7"/>
<stop offset="0.81" stop-color="#00BAD4"/>
<stop offset="0.983" stop-color="#009BBC"/>
<stop offset="1" stop-color="#0098BA"/>
</linearGradient>
</defs>
</svg>
