<svg width="512" height="512" viewBox="0 0 512 512" fill="none" xmlns="http://www.w3.org/2000/svg">
<mask id="mask0_1065_482" style="mask-type:luminance" maskUnits="userSpaceOnUse" x="156" y="156" width="200" height="200">
<path d="M356 156H156V356H356V156Z" fill="white"/>
</mask>
<g mask="url(#mask0_1065_482)">
<path d="M329.623 156L331.758 171.937V171.977L337.699 216.349L278.534 283.888L280.347 279.363C280.376 279.322 280.393 279.275 280.396 279.225L329.59 156.071C329.596 156.046 329.607 156.021 329.623 156Z" fill="url(#paint0_linear_1065_482)"/>
<path d="M346.195 279.665L355.999 352.698L278.534 283.889L280.848 283.743L343.368 279.817C343.408 279.817 343.466 279.83 343.504 279.828H343.541L343.763 279.814L346.195 279.665Z" fill="url(#paint1_linear_1065_482)"/>
<path d="M329.623 156C329.607 156.023 329.595 156.05 329.59 156.078L280.396 279.232C280.393 279.281 280.376 279.329 280.348 279.37L278.534 283.895L244.257 253.452L329.623 156Z" fill="url(#paint2_linear_1065_482)"/>
<path d="M310.216 247.723L346.185 279.671L343.746 279.825L343.524 279.839H343.487C343.449 279.839 343.391 279.825 343.351 279.828L280.831 283.754L278.517 283.899L310.216 247.723Z" fill="url(#paint3_linear_1065_482)"/>
<g style="mix-blend-mode:screen" opacity="0.6">
<path d="M322.706 163.898C322.706 163.898 321.724 165.265 319.946 167.62C318.128 169.939 315.616 173.342 312.408 177.282C309.264 181.24 305.535 185.83 301.469 190.676C297.403 195.523 293.02 200.608 288.595 205.703C284.128 210.759 279.678 215.798 275.379 220.461C271.116 225.123 267.079 229.404 263.571 233.041C260.066 236.713 257.049 239.667 254.989 241.772C252.89 243.841 251.648 245.013 251.648 245.013L322.706 163.898Z" fill="white"/>
</g>
<g style="mix-blend-mode:screen" opacity="0.6">
<path d="M329.592 156.078L280.398 279.231C280.538 278.745 281.145 276.865 282.125 273.945C283.34 270.512 284.939 265.578 287.049 259.691C289.16 253.804 291.647 246.991 294.396 239.72C297.145 232.449 300.205 224.7 303.247 216.969C306.368 209.274 309.472 201.597 312.509 194.404C315.547 187.211 318.391 180.563 320.934 174.884C323.435 169.164 325.676 164.476 327.184 161.159C328.53 158.275 329.388 156.475 329.592 156.078Z" fill="white"/>
</g>
<g style="mix-blend-mode:screen" opacity="0.6">
<path d="M343.367 279.823L280.847 283.75C280.809 283.75 280.75 283.736 280.712 283.739C281.156 283.634 284.925 282.821 290.436 282.051C293.345 281.638 296.785 281.229 300.457 280.843C304.128 280.457 308.055 280.191 311.999 279.903C315.91 279.696 319.838 279.457 323.549 279.405C327.218 279.307 330.684 279.283 333.641 279.345C338.816 279.423 342.507 279.745 343.367 279.823Z" fill="white"/>
</g>
<g style="mix-blend-mode:multiply" opacity="0.2">
<path d="M310.215 247.723L278.534 283.888L328.211 263.683L310.215 247.723Z" fill="black"/>
</g>
<g style="mix-blend-mode:multiply" opacity="0.15">
<path d="M333.937 194.241C334.655 201.485 335.542 208.698 336.332 215.896C331.807 220.901 327.2 225.87 322.735 230.929L310.929 244.364L278.534 283.888L326.28 264.466L326.982 265.083L343.767 279.817L344.594 280.551C345.452 286.404 346.237 292.262 347.173 298.111L349.962 316.328C350.913 322.407 351.842 328.465 352.886 334.517C353.93 340.57 354.917 346.646 355.99 352.696L346.186 279.663L328.202 263.69L310.215 247.723L337.706 216.349L331.764 171.977C332.414 179.411 333.217 186.807 333.937 194.241Z" fill="black"/>
</g>
<path d="M156 354.21L171.963 354.352H172L216.465 354.75L275.633 287.204L271.401 289.581C271.364 289.614 271.32 289.636 271.272 289.646L156.064 354.163C156.04 354.174 156.018 354.19 156 354.21Z" fill="url(#paint4_linear_1065_482)"/>
<path d="M279.92 355.326L353.106 355.996L275.641 287.193L275.788 289.523L279.723 352.477C279.723 352.515 279.75 352.571 279.752 352.609V352.647L279.765 352.87L279.92 355.326Z" fill="url(#paint5_linear_1065_482)"/>
<path d="M156 354.21C156.021 354.19 156.046 354.176 156.073 354.167L271.281 289.65C271.329 289.641 271.373 289.618 271.409 289.586L275.642 287.208L241.367 256.765L156 354.21Z" fill="url(#paint6_linear_1065_482)"/>
<path d="M243.949 323.376L279.92 355.326L279.767 352.87L279.754 352.647V352.609C279.754 352.571 279.727 352.515 279.725 352.477L275.79 289.523L275.644 287.193L243.949 323.376Z" fill="url(#paint7_linear_1065_482)"/>
<g style="mix-blend-mode:screen" opacity="0.6">
<path d="M162.917 346.307C162.917 346.307 164.141 345.157 166.243 343.088C168.303 340.98 171.342 338.047 174.825 334.354C178.332 330.72 182.387 326.418 186.651 321.757C190.914 317.096 195.381 312.075 199.849 307.023C204.283 301.931 208.681 296.857 212.741 291.979C216.8 287.139 220.518 282.569 223.662 278.611C226.843 274.651 229.375 271.269 231.199 268.949C232.973 266.592 233.977 265.205 233.977 265.205L162.917 346.307Z" fill="white"/>
</g>
<g style="mix-blend-mode:screen" opacity="0.6">
<path d="M156.074 354.163L271.281 289.646C270.816 289.849 269.04 290.688 266.286 292.032C263.054 293.675 258.392 295.888 252.856 298.73C247.32 301.572 240.915 304.911 234.095 308.566C227.276 312.22 220.019 316.243 212.783 320.248C205.589 324.327 198.412 328.385 191.706 332.319C184.999 336.252 178.807 339.922 173.526 343.17C168.205 346.385 163.862 349.198 160.783 351.129C158.104 352.826 156.439 353.911 156.074 354.163Z" fill="white"/>
</g>
<g style="mix-blend-mode:screen" opacity="0.6">
<path d="M279.724 352.479L275.789 289.525C275.789 289.487 275.762 289.431 275.76 289.393C275.713 289.856 275.383 293.713 275.316 299.319C275.272 302.274 275.299 305.764 275.376 309.481C275.454 313.198 275.682 317.154 275.893 321.129C276.174 325.063 276.44 329.014 276.844 332.738C277.205 336.419 277.611 339.882 278.043 342.829C278.759 347.974 279.538 351.627 279.724 352.479Z" fill="white"/>
</g>
<g style="mix-blend-mode:multiply" opacity="0.2">
<path d="M243.949 323.375L275.641 287.197L261.934 339.351L243.949 323.375Z" fill="black"/>
</g>
<g style="mix-blend-mode:multiply" opacity="0.15">
<path d="M194.219 353.75C201.446 353.562 208.665 353.549 215.857 353.439C220.222 348.294 224.545 343.072 228.973 337.978L240.736 324.507L275.641 287.197L262.467 337.324L263.161 337.949L279.767 352.879L280.594 353.614C286.469 353.741 292.344 353.792 298.219 353.998L316.516 354.511C322.624 354.701 328.71 354.873 334.807 355.161C340.904 355.449 347 355.676 353.106 356L279.92 355.33L261.935 339.357L243.949 323.382L216.473 354.75L172.008 354.352C179.411 354.071 186.803 353.951 194.219 353.75Z" fill="black"/>
</g>
</g>
<defs>
<linearGradient id="paint0_linear_1065_482" x1="1606.27" y1="-18.5679" x2="1735.31" y2="-18.5679" gradientUnits="userSpaceOnUse">
<stop stop-color="#FCFC53"/>
<stop offset="1" stop-color="#F8A700"/>
</linearGradient>
<linearGradient id="paint1_linear_1065_482" x1="1653.54" y1="56.4744" x2="1607.14" y2="56.4744" gradientUnits="userSpaceOnUse">
<stop stop-color="#FCFC53"/>
<stop offset="1" stop-color="#F8A700"/>
</linearGradient>
<linearGradient id="paint2_linear_1065_482" x1="1731.94" y1="-18.577" x2="1607.47" y2="-18.577" gradientUnits="userSpaceOnUse">
<stop stop-color="#FCFC53"/>
<stop offset="1" stop-color="#F8A700"/>
</linearGradient>
<linearGradient id="paint3_linear_1065_482" x1="1606.43" y1="28.6395" x2="1654.34" y2="28.6395" gradientUnits="userSpaceOnUse">
<stop stop-color="#FCFC53"/>
<stop offset="1" stop-color="#F8A700"/>
</linearGradient>
<linearGradient id="paint4_linear_1065_482" x1="-3184.99" y1="-17.4975" x2="-3055.89" y2="-17.4975" gradientUnits="userSpaceOnUse">
<stop stop-color="#00F3FF"/>
<stop offset="0.238" stop-color="#00EFFC"/>
<stop offset="0.44" stop-color="#00E5F4"/>
<stop offset="0.629" stop-color="#00D3E7"/>
<stop offset="0.81" stop-color="#00BAD4"/>
<stop offset="0.983" stop-color="#009BBC"/>
<stop offset="1" stop-color="#0098BA"/>
</linearGradient>
<linearGradient id="paint5_linear_1065_482" x1="-3138.08" y1="57.4591" x2="-3184.48" y2="57.4591" gradientUnits="userSpaceOnUse">
<stop stop-color="#00F3FF"/>
<stop offset="0.238" stop-color="#00EFFC"/>
<stop offset="0.44" stop-color="#00E5F4"/>
<stop offset="0.629" stop-color="#00D3E7"/>
<stop offset="0.81" stop-color="#00BAD4"/>
<stop offset="0.983" stop-color="#009BBC"/>
<stop offset="1" stop-color="#0098BA"/>
</linearGradient>
<linearGradient id="paint6_linear_1065_482" x1="-3059.62" y1="-17.5434" x2="-3184.15" y2="-17.5434" gradientUnits="userSpaceOnUse">
<stop stop-color="#00F3FF"/>
<stop offset="0.238" stop-color="#00EFFC"/>
<stop offset="0.44" stop-color="#00E5F4"/>
<stop offset="0.629" stop-color="#00D3E7"/>
<stop offset="0.81" stop-color="#00BAD4"/>
<stop offset="0.983" stop-color="#009BBC"/>
<stop offset="1" stop-color="#0098BA"/>
</linearGradient>
<linearGradient id="paint7_linear_1065_482" x1="-3185.26" y1="29.5802" x2="-3137.35" y2="29.5802" gradientUnits="userSpaceOnUse">
<stop stop-color="#00F3FF"/>
<stop offset="0.238" stop-color="#00EFFC"/>
<stop offset="0.44" stop-color="#00E5F4"/>
<stop offset="0.629" stop-color="#00D3E7"/>
<stop offset="0.81" stop-color="#00BAD4"/>
<stop offset="0.983" stop-color="#009BBC"/>
<stop offset="1" stop-color="#0098BA"/>
</linearGradient>
</defs>
</svg>
